<svg height="200px" width="200px" version="1.1" id="_x32_" xmlns="http://www.w3.org/2000/svg" xmlns:xlink="http://www.w3.org/1999/xlink" viewBox="-51.2 -51.2 614.40 614.40" xml:space="preserve" fill="#000000" stroke="#000000" transform="rotate(0)matrix(1, 0, 0, 1, 0, 0)"><g id="SVGRepo_bgCarrier" stroke-width="0" transform="translate(0,0), scale(1)"><path transform="translate(-51.2, -51.2), scale(19.2)" d="M16,28.96926942117074C18.814533333953694,28.95002451896687,21.831217542262138,28.80528643500828,24.0015311257935,27.01316277762953C26.12129105085215,25.262783505948523,26.603007866164756,22.328823926104615,27.271119641117664,19.662208769996695C27.892422458124233,17.182420850559055,28.120782817968617,14.717674822898108,27.714491693515377,12.19373091742008C27.239389095489315,9.242319393532199,27.29279890059659,5.527075703218185,24.744206828430023,3.9646318124883404C22.17873032782868,2.3918367273306056,19.00626578110159,4.878909195699072,16,5.012026093242799C13.1993049740213,5.136040355444133,10.23481486833878,3.3237529321804344,7.800879823613446,4.714879225451124C5.322518183858151,6.1313977347551045,4.733605510661205,9.34023474954232,3.7431217400661367,12.017498839018574C2.706729238707337,14.818853600059619,1.1393237455037548,17.69099748695296,1.9351163380385827,20.569957726995668C2.742962786505697,23.49252552545723,5.315282053603216,25.568492849602237,7.918570794151496,27.12313305049759C10.350455095786193,28.57541340663333,13.167544459080254,28.988636869843035,16,28.96926942117074" fill="#c8f8c2" strokewidth="0"></path></g><g id="SVGRepo_tracerCarrier" stroke-linecap="round" stroke-linejoin="round"></g><g id="SVGRepo_iconCarrier"> <style type="text/css"> .st0{fill:#99d6ea;} </style> <g> <path class="st0" d="M416.296,232.076c-0.042,0-0.079,0.009-0.121,0.009c0.056-1.594,0.121-3.187,0.121-4.79 c0-76.646-62.131-138.771-138.763-138.771c-71.785,0-130.854,54.521-138.03,124.419c-10.066-3.113-20.755-4.791-31.842-4.791 C48.207,208.152,0,256.354,0,315.814c0,59.46,48.207,107.662,107.662,107.662h308.634c52.852,0,95.704-42.842,95.704-95.695 C512,274.919,469.148,232.076,416.296,232.076z"></path> </g> </g></svg>
